<svg id="Layer_1" data-name="Layer 1" xmlns="http://www.w3.org/2000/svg" xmlns:xlink="http://www.w3.org/1999/xlink" width="200" height="200" viewBox="0 0 200 200"><defs><style>.cls-1{fill:none;}.cls-2{fill:#fff;stroke:#9c0a80;stroke-miterlimit:10;stroke-width:5.67px;}.cls-3{clip-path:url(#clip-path);}.cls-4{fill:#f8d003;}.cls-5{fill:#f47706;}.cls-6{fill:#eb5401;}.cls-7{fill:#016fbd;}</style><clipPath id="clip-path"><rect class="cls-1" x="33.67" y="28.17" width="132.66" height="132.66"/></clipPath></defs><circle class="cls-2" cx="100" cy="100" r="90"/><g class="cls-3"><g class="cls-3"><path class="cls-4" d="M58.66,108.87a28.09,28.09,0,0,1-.23-9.07A26.13,26.13,0,0,1,60,94.05,27.12,27.12,0,0,1,66.17,85C76.8,74.16,85,66.86,85,66.86c7.87-7,11.91-10.6,17-12.6a35.57,35.57,0,0,1,8.84-2.21,26.7,26.7,0,0,1,10.17.44c2.72.69,4.54,1.71,8.18,3.76,4.4,2.46,6.59,3.69,8.85,6.19,1.73,1.91,2.7,3.78,4.64,7.51,1.83,3.52,2.75,5.28,3.32,7.74.71,3.06.54,5.39.22,9.73-.29,4-.44,6-1.33,8.62a25.1,25.1,0,0,1-5.53,8.85,38.44,38.44,0,0,1-12.6,9.28,53.53,53.53,0,0,1-6.63,2.66c-7.59,2.61-8.29,1.51-12.38,3.31-5.1,2.25-4.2,4-11.94,8.4a29.37,29.37,0,0,1-8,3.32,20.67,20.67,0,0,1-7.52.66c-4.58-.52-7.7-2.73-10.39-4.64a25.79,25.79,0,0,1-8-8.18c-2.22-3.79-2.75-7.17-3.31-10.83"/><path class="cls-4" d="M68,88.24a26.28,26.28,0,0,0-7-3.26,23,23,0,0,0-3.29-.75,30.81,30.81,0,0,0-4.28-.39,29,29,0,0,0-4.74.43A4.3,4.3,0,0,0,46.5,86a4.33,4.33,0,0,0-.38,2.9,3.83,3.83,0,0,0,1.73,2.25l.9.37a3.77,3.77,0,0,0,2,0l.64-.09-1,.13a22.82,22.82,0,0,1,6,0l-1-.14A23.72,23.72,0,0,1,61.29,93l-.9-.38a22.06,22.06,0,0,1,3.82,2.08,4.33,4.33,0,0,0,2.9.38,3.86,3.86,0,0,0,2.25-1.73,3.82,3.82,0,0,0,.38-2.9c-.13-.3-.26-.6-.38-.9A4,4,0,0,0,68,88.24"/><path class="cls-4" d="M61.61,110.51A30.88,30.88,0,0,0,48.26,114a25.17,25.17,0,0,0-5.32,3.8,24.16,24.16,0,0,0-4,4.9,25.61,25.61,0,0,0-1.71,3.49,19.06,19.06,0,0,0-.93,2.95,4,4,0,0,0,.38,2.89,3.76,3.76,0,0,0,5.15,1.35,3.76,3.76,0,0,0,1.73-2.25,17.1,17.1,0,0,1,1-3c-.13.3-.26.6-.38.9a19.37,19.37,0,0,1,2.47-4.21l-.59.77a20.4,20.4,0,0,1,3.66-3.65l-.77.59a22.88,22.88,0,0,1,5-2.9L53,120a26.6,26.6,0,0,1,6.73-1.81l-1,.13c.95-.12,1.91-.2,2.87-.24a3.91,3.91,0,0,0,2.66-1.1,3.83,3.83,0,0,0,1.1-2.66,3.87,3.87,0,0,0-1.1-2.66,3.8,3.8,0,0,0-2.66-1.1"/><path class="cls-4" d="M44.47,122.16c.5,1,1,2,1.43,3l-.38-.9a18,18,0,0,1,1.34,4.53c0-.33-.09-.66-.14-1a10.43,10.43,0,0,1,0,2.79c0-.33.09-.67.13-1a9.24,9.24,0,0,1-.64,2.37l.38-.89a7.78,7.78,0,0,1-1,1.67l.59-.76a6.53,6.53,0,0,1-1.15,1.14l.76-.58a5.76,5.76,0,0,1-.71.46,3.89,3.89,0,0,0-1.73,2.25,2.84,2.84,0,0,0-.07,1.5,2.73,2.73,0,0,0,.45,1.4A3.82,3.82,0,0,0,46,139.91a4,4,0,0,0,2.89-.38,9.93,9.93,0,0,0,2-1.48,11.61,11.61,0,0,0,1.53-1.89,12.21,12.21,0,0,0,1.09-2.24,10.18,10.18,0,0,0,.48-1.51,13.36,13.36,0,0,0,.3-4.18,19.28,19.28,0,0,0-1.07-4.8A51.93,51.93,0,0,0,51,118.37a2.91,2.91,0,0,0-1-1.06,2.77,2.77,0,0,0-1.28-.67,2.84,2.84,0,0,0-1.5-.07,2.76,2.76,0,0,0-1.4.45,3.72,3.72,0,0,0-1.72,2.24c-.05.34-.09.67-.14,1a3.73,3.73,0,0,0,.51,1.9"/><path class="cls-4" d="M108.64,110.92A16.8,16.8,0,0,1,109.7,115c0-.33-.09-.66-.14-1a35.51,35.51,0,0,1,.24,4.84,41.22,41.22,0,0,1-.2,5c0-.33.08-.66.13-1a10.58,10.58,0,0,1-.72,2.66c.13-.3.26-.6.38-.9a10,10,0,0,1-1.27,2.17l.59-.76a10.34,10.34,0,0,1-1.84,1.84l.77-.59a10.16,10.16,0,0,1-1.27.82,3.86,3.86,0,0,0-1.73,2.25,2.84,2.84,0,0,0-.07,1.5,2.93,2.93,0,0,0,.45,1.4,3.82,3.82,0,0,0,2.25,1.73,4.07,4.07,0,0,0,2.9-.38,15.15,15.15,0,0,0,2.41-1.73,10.41,10.41,0,0,0,1.45-1.52,14,14,0,0,0,1.65-2.47,15.35,15.35,0,0,0,1-2.71,25.44,25.44,0,0,0,.58-6,47.28,47.28,0,0,0-.1-4.91,21.2,21.2,0,0,0-1.32-6.3,4.1,4.1,0,0,0-1.73-2.24,2.7,2.7,0,0,0-1.39-.45,2.84,2.84,0,0,0-1.5.07A3.8,3.8,0,0,0,109,108c-.13.29-.25.59-.38.89a3.77,3.77,0,0,0,0,2"/><path class="cls-4" d="M109.49,123.92a40.66,40.66,0,0,0-.87,7.28,15.51,15.51,0,0,0,.5,3.65,10.51,10.51,0,0,0,1.56,3.36,3.64,3.64,0,0,0,3.74,1.79,2.82,2.82,0,0,0,1.4-.44,3.79,3.79,0,0,0,1.73-2.25,3.67,3.67,0,0,0-.38-2.9,7.66,7.66,0,0,1-.81-1.42l.38.9a9.94,9.94,0,0,1-.64-2.39c.05.33.09.66.14,1a16,16,0,0,1,.1-4.2c0,.33-.09.66-.14,1,.16-1.13.37-2.26.55-3.38a2.94,2.94,0,0,0,.06-1.5,2.82,2.82,0,0,0-.44-1.4,3.86,3.86,0,0,0-2.25-1.73,3.82,3.82,0,0,0-2.9.38l-.76.59a3.82,3.82,0,0,0-1,1.66"/><path class="cls-4" d="M140.93,86c2.69.49,5.39,1,8.11,1.26a37.06,37.06,0,0,0,7.22.19,30.26,30.26,0,0,0,4.91-.79A3.87,3.87,0,0,0,163.41,85a2.76,2.76,0,0,0,.45-1.4,2.84,2.84,0,0,0-.07-1.5,3.8,3.8,0,0,0-1.73-2.25,4,4,0,0,0-2.89-.38,24.17,24.17,0,0,1-2.67.51l1-.13a37.23,37.23,0,0,1-9.72-.21l1,.13c-2-.26-3.91-.61-5.85-1a2.84,2.84,0,0,0-1.5-.07,2.76,2.76,0,0,0-1.4.45,3.76,3.76,0,0,0-1.34,5.14A3.67,3.67,0,0,0,140.93,86"/><path class="cls-4" d="M127.64,57.65c0-.81.09-1.61.19-2.41,0,.33-.09.66-.13,1a16.66,16.66,0,0,1,1-4.06c-.12.3-.25.6-.38.9a8.81,8.81,0,0,1,1.13-1.92l-.59.76a11.25,11.25,0,0,1,2-1.94l-.76.59a27.56,27.56,0,0,1,5.86-3.21,2.73,2.73,0,0,0,1-1,2.79,2.79,0,0,0,.68-1.28,2.83,2.83,0,0,0,.06-1.5,2.78,2.78,0,0,0-.44-1.39A3.79,3.79,0,0,0,135,40.49l-1-.14a3.85,3.85,0,0,0-1.9.52c-1,.46-2.1.94-3.11,1.47a23.49,23.49,0,0,0-3.51,2.33,13.82,13.82,0,0,0-2.83,3.08,13,13,0,0,0-1.8,4.23,26.41,26.41,0,0,0-.76,5.67,3.86,3.86,0,0,0,1.11,2.66,3.75,3.75,0,0,0,5.31,0,3.92,3.92,0,0,0,1.1-2.66"/><path class="cls-5" d="M70.71,94.45c-1.19.27-2.39.49-3.59.66l1-.14a39.5,39.5,0,0,1-10.53,0l1,.14a39.9,39.9,0,0,1-7.3-1.71,2.84,2.84,0,0,0-1.5-.07,2.79,2.79,0,0,0-1.39.45,3.75,3.75,0,0,0-1.35,5.14l.58.77a3.86,3.86,0,0,0,1.66,1,43.93,43.93,0,0,0,9.21,2,39.51,39.51,0,0,0,8.56,0,46.84,46.84,0,0,0,5.65-.92A3.84,3.84,0,0,0,75,100a2.73,2.73,0,0,0,.45-1.4,2.84,2.84,0,0,0-.07-1.5,3.77,3.77,0,0,0-1.73-2.24,4,4,0,0,0-2.89-.38"/><path class="cls-5" d="M68.84,107.6c-1.84,2.77-3.69,5.54-5.25,8.47-1.39,2.6-2.43,5.35-3.72,8a22.91,22.91,0,0,1-2.42,4l.59-.76a14.44,14.44,0,0,1-1.77,1.9,2.75,2.75,0,0,0-.78,1.21,2.88,2.88,0,0,0-.32,1.45,3.85,3.85,0,0,0,1.1,2.66,3.8,3.8,0,0,0,2.66,1.1l1-.14a3.71,3.71,0,0,0,1.66-1,14.39,14.39,0,0,0,1.61-1.7,25.29,25.29,0,0,0,1.87-2.61A35.75,35.75,0,0,0,67.22,126c.65-1.47,1.27-3,2-4.4.81-1.68,1.73-3.31,2.7-4.9,1.1-1.81,2.27-3.56,3.44-5.32a2.73,2.73,0,0,0,.45-1.4,2.84,2.84,0,0,0-.07-1.5,3.76,3.76,0,0,0-4.62-2.63l-.9.38a3.8,3.8,0,0,0-1.35,1.35"/><path class="cls-5" d="M76.29,117.14a52,52,0,0,1-.46,7.27c0-.33.09-.67.13-1a51.83,51.83,0,0,1-2.52,10.41c-.34,1-.71,1.89-1.1,2.82l.38-.9c0,.06,0,.13-.08.19a4.18,4.18,0,0,0-.38,2.9A3.81,3.81,0,0,0,74,141.07a3.73,3.73,0,0,0,2.9.38l.9-.38a3.74,3.74,0,0,0,1.34-1.34,56.89,56.89,0,0,0,3-8.78,58.19,58.19,0,0,0,1.48-9.09c.13-1.57.19-3.14.18-4.72a3.76,3.76,0,0,0-6.42-2.66,4,4,0,0,0-1.1,2.66"/><path class="cls-5" d="M130.21,94.3A14.9,14.9,0,0,0,132,96.72a12.09,12.09,0,0,0,1.48,1.47,22.09,22.09,0,0,0,4.28,2.84,59.81,59.81,0,0,0,9.88,3.67c2,.58,4,1.1,6,1.56a4,4,0,0,0,2.9-.38,3.77,3.77,0,0,0,1.34-5.15A3.72,3.72,0,0,0,155.56,99a97,97,0,0,1-10.86-3.15c-.8-.29-1.6-.59-2.38-.92l.9.38a21.91,21.91,0,0,1-4.77-2.67c.26.19.51.39.76.59A12.72,12.72,0,0,1,136.94,91l.59.76a9.17,9.17,0,0,1-.82-1.24,3.89,3.89,0,0,0-2.25-1.73,4.18,4.18,0,0,0-2.9.38,3.82,3.82,0,0,0-1.73,2.25,4,4,0,0,0,.38,2.89"/><path class="cls-4" d="M119.74,64.37a73.29,73.29,0,0,0-3-15.47c-.42-1.35-.88-2.68-1.38-4a4.3,4.3,0,0,0-1.73-2.25,4.33,4.33,0,0,0-2.9-.38A3.83,3.83,0,0,0,108.52,44a3.7,3.7,0,0,0-.37,2.9,69.4,69.4,0,0,1,3.3,11.74c.21,1.13.39,2.27.54,3.41,0-.34-.09-.67-.13-1,.15,1.1.27,2.21.36,3.32a2.79,2.79,0,0,0,.33,1.45,2.88,2.88,0,0,0,.77,1.21,3.83,3.83,0,0,0,2.66,1.1,3.87,3.87,0,0,0,2.66-1.1,3.68,3.68,0,0,0,1.1-2.66"/><path class="cls-5" d="M60.14,93.93a26.58,26.58,0,0,0-1.79,5.43,27.24,27.24,0,0,0-.53,5.77,51,51,0,0,0,.63,5.92c.2,1.35.42,2.7.72,4a28.49,28.49,0,0,0,1.64,4.9,16.61,16.61,0,0,0,.87,1.74,19.78,19.78,0,0,0,1.78,2.49,18,18,0,0,0,3.92,3.45,26.93,26.93,0,0,0,3.59,2,57.19,57.19,0,0,0,5.7,2.45,16.88,16.88,0,0,0,2.5.7,12.28,12.28,0,0,0,3.77.29,3.64,3.64,0,0,0,1.81-.4,3.56,3.56,0,0,0,1.51-1,3.48,3.48,0,0,0,1-1.51,3.52,3.52,0,0,0,.41-1.81,4.76,4.76,0,0,0-1.38-3.32l-1-.74a4.71,4.71,0,0,0-2.37-.64,7.57,7.57,0,0,1-2,0l1.25.17a19.5,19.5,0,0,1-4.77-1.46l1.13.47A32.54,32.54,0,0,1,71.38,119l1,.73A13.07,13.07,0,0,1,70,117.42l.73,1a14,14,0,0,1-1.8-3.14c.16.37.32.75.47,1.12a34.62,34.62,0,0,1-2-8.77c.06.42.11.83.17,1.25a27.31,27.31,0,0,1-.15-7.11L67.24,103a21.48,21.48,0,0,1,1.45-5.33c-.16.38-.32.75-.47,1.13l0-.1a3.44,3.44,0,0,0,.55-1.75,3.5,3.5,0,0,0-.08-1.87,3.63,3.63,0,0,0-.84-1.6,3.58,3.58,0,0,0-1.32-1.21A4.68,4.68,0,0,0,63,91.77l-1.13.47a4.77,4.77,0,0,0-1.68,1.69"/><path class="cls-5" d="M139.83,103.83a12.42,12.42,0,0,0,2.31-1.91,15.31,15.31,0,0,0,1.77-2.38,17.3,17.3,0,0,0,1.24-2.74,13.45,13.45,0,0,0,.57-2,57.61,57.61,0,0,0,.71-10.25c0-.79,0-1.58,0-2.37a24,24,0,0,0-.31-3.38,33.75,33.75,0,0,0-1-4.42,31.49,31.49,0,0,0-3.64-8.88A25,25,0,0,0,133.82,58a3.45,3.45,0,0,0-1.75-.56,4.81,4.81,0,0,0-4.68,2.24,4.68,4.68,0,0,0-.47,3.62,5,5,0,0,0,2.16,2.81c.52.33,1,.69,1.52,1.07l-.95-.74a20,20,0,0,1,3.51,3.5c-.25-.31-.49-.63-.74-1A19.66,19.66,0,0,1,135,73.31c-.15-.38-.31-.75-.47-1.13A39.2,39.2,0,0,1,136,76.66a35.62,35.62,0,0,1,1.11,4.67l-.17-1.25a38.88,38.88,0,0,1,.07,6.2,53.52,53.52,0,0,1-.3,6.07c.06-.42.11-.83.17-1.25a14,14,0,0,1-.94,3.61l.48-1.12a10.68,10.68,0,0,1-1.26,2.17l.73-1a8,8,0,0,1-1.32,1.34l.95-.74-.42.31a3.5,3.5,0,0,0-1.32,1.21,3.58,3.58,0,0,0-.84,1.6,5.36,5.36,0,0,0,.47,3.62,4.82,4.82,0,0,0,2.81,2.16,4.7,4.7,0,0,0,3.63-.48"/></g><g class="cls-3"><path class="cls-6" d="M130.29,65.09a22.23,22.23,0,0,0-9.07-4.2A29.15,29.15,0,0,0,110,60.23c-6.79,1-11.33,4.2-16.14,7.73-7.21,5.3-5.36,6.2-16.8,16.81C72.49,89,69.89,91,67.72,95.38a21,21,0,0,0-2.43,11.05,20.2,20.2,0,0,0,6.19,13c1.25,1.17,5.88,5.49,11.94,5.08,2.4-.16,4.55-1.35,8.84-3.75,6-3.38,6.11-4.54,11.28-7.08a45.35,45.35,0,0,1,8.62-3.32c3-.79,3.72-.64,7.08-1.54a33.38,33.38,0,0,0,8-2.88,21.61,21.61,0,0,0,8.41-8c2.36-4,2.64-7.73,2.87-10.83a27.44,27.44,0,0,0-1.33-11.72,22,22,0,0,0-6.85-10.39"/></g><g class="cls-3"><path class="cls-5" d="M94.9,91.24a6.38,6.38,0,0,0,4-1.65,6.38,6.38,0,0,0,1.65-4l-.2-1.5a5.6,5.6,0,0,0-1.45-2.49,5.89,5.89,0,0,0-4-1.65,5.46,5.46,0,0,0-5.16,3.46,4.3,4.3,0,0,0-.48,2.18c.07.5.13,1,.2,1.5a5.71,5.71,0,0,0,1.45,2.49,5.87,5.87,0,0,0,4,1.65"/><path class="cls-5" d="M74.84,113.73a4.21,4.21,0,0,0,2.18-.49,5.77,5.77,0,0,0,3.46-5.15l-.2-1.5a5.6,5.6,0,0,0-1.45-2.49,5.87,5.87,0,0,0-4-1.65,6.23,6.23,0,0,0-4,1.65,6.32,6.32,0,0,0-1.65,4c.07.5.14,1,.2,1.5a5.71,5.71,0,0,0,1.45,2.49,5.89,5.89,0,0,0,4,1.65"/><path class="cls-5" d="M108.72,106.75a4.82,4.82,0,0,0,4.7-4.7,4.73,4.73,0,0,0-1.37-3.32,4.87,4.87,0,0,0-3.33-1.38,5.27,5.27,0,0,0-3.32,1.38,3.48,3.48,0,0,0-1,1.51,3.52,3.52,0,0,0-.41,1.81,4.76,4.76,0,0,0,1.38,3.32,4.86,4.86,0,0,0,3.32,1.38"/><path class="cls-5" d="M98.4,73.13a2.91,2.91,0,0,0,2-.82,2.84,2.84,0,0,0,0-4,2.81,2.81,0,0,0-4,0,2.87,2.87,0,0,0-.83,2,2.92,2.92,0,0,0,.83,2,3,3,0,0,0,2,.82"/></g><g class="cls-3"><path class="cls-7" d="M129.29,78.69A16,16,0,0,0,121.34,71c-1.36-.56-5.79-2.38-10.4-.22a11.14,11.14,0,0,0-5.74,6.19,11.64,11.64,0,0,0,.44,8.18c1,2.71,3,4.61,6.85,8.4a14.91,14.91,0,0,0,4,3.1c1.14.55,3.88,1.88,6.63.88,1.56-.56,2.41-1.61,4-3.54a16,16,0,0,0,3.32-5.3,11.45,11.45,0,0,0-1.11-10"/></g></g></svg>